# xmcd
#
# Track frame offsets:
#	150
#	33353
#	52279
#	98789
#	134429
#	160957
#	172495
#	189507
#	223619
#
# Disc length: 3345 seconds
#
# Revision: 1
# Processed by: cddbd v1.5PL3 Copyright (c) Steve Scherf et al.
# Submitted via: EasyCDDAExtractor 7.0.5.1
#
DISCID=890d0f09
DTITLE=Walter Trout - Face The Music
DYEAR=2000
DGENRE=Blues
TTITLE0=Got a Broken Heart
TTITLE1=Hard Time Blues
TTITLE2=The reason I'm Gone
TTITLE3=Come Home
TTITLE4=Marie's Mood
TTITLE5=Too Much Biz
TTITLE6=Obstacles in My Way
TTITLE7=Tired of Sleeping Alone
TTITLE8=On The Rise
EXTD=
EXTT0=
EXTT1=
EXTT2=
EXTT3=
EXTT4=
EXTT5=
EXTT6=
EXTT7=
EXTT8=
PLAYORDER=
